<svg width="29" height="26" viewBox="0 0 29 26" fill="none" xmlns="http://www.w3.org/2000/svg">
<path opacity="0.8" fill-rule="evenodd" clip-rule="evenodd" d="M9.99996 9V8C9.99996 6.89543 10.8954 6 12 6C13.1045 6 14 6.89543 14 8V9H9.99996ZM7.99996 9V8C7.99996 5.79086 9.79082 4 12 4C14.2091 4 16 5.79086 16 8V9H18.3308C18.849 9 19.2813 9.39576 19.3269 9.91187L20.373 21.7356C20.5282 23.49 19.1459 25 17.3847 25H6.61449C4.85328 25 3.47095 23.49 3.62616 21.7356L4.67224 9.91187C4.7179 9.39576 5.15022 9 5.66835 9H7.99996ZM16 11H14H9.99996H7.99996H6.58378L5.61838 21.9119C5.56664 22.4967 6.02742 23 6.61449 23H17.3847C17.9718 23 18.4325 22.4967 18.3808 21.9119L17.4154 11H16Z" fill="black"/>
<circle cx="20" cy="9" r="9" fill="black"/>
<path d="M17.5332 13H16.4434V5.77539L14.2578 6.57812V5.59375L17.3633 4.42773H17.5332V13ZM26.2988 13H20.709V12.2207L23.6621 8.93945C24.0996 8.44336 24.4004 8.04102 24.5645 7.73242C24.7324 7.41992 24.8164 7.09766 24.8164 6.76562C24.8164 6.32031 24.6816 5.95508 24.4121 5.66992C24.1426 5.38477 23.7832 5.24219 23.334 5.24219C22.7949 5.24219 22.375 5.39648 22.0742 5.70508C21.7773 6.00977 21.6289 6.43555 21.6289 6.98242H20.5449C20.5449 6.19727 20.7969 5.5625 21.3008 5.07812C21.8086 4.59375 22.4863 4.35156 23.334 4.35156C24.127 4.35156 24.7539 4.56055 25.2148 4.97852C25.6758 5.39258 25.9062 5.94531 25.9062 6.63672C25.9062 7.47656 25.3711 8.47656 24.3008 9.63672L22.0156 12.1152H26.2988V13Z" fill="white"/>
</svg>
