<svg width="24" height="24" viewBox="0 0 24 24" fill="none" xmlns="http://www.w3.org/2000/svg">
<rect opacity="0.01" width="24" height="24" fill="#D8D8D8"/>
<path opacity="0.8" d="M11.3268 4.85039L11.9795 5.41999L12.6363 4.85511C14.7874 3.00514 17.9238 3.12395 19.908 5.19843C21.9004 7.2815 22.028 10.5985 20.2783 12.838L12.6984 20.2402C12.3105 20.619 11.6913 20.6196 11.3026 20.2416L3.7109 12.8593C1.97472 10.5976 2.10707 7.27931 4.09739 5.19843C6.08439 3.12102 9.21735 3.00963 11.3268 4.85039Z" stroke="black" stroke-width="2"/>
<mask id="mask0_85_2201" style="mask-type:luminance" maskUnits="userSpaceOnUse" x="1" y="2" width="22" height="20">
<path d="M11.3268 4.85039L11.9795 5.41999L12.6363 4.85511C14.7874 3.00514 17.9238 3.12395 19.908 5.19843C21.9004 7.2815 22.028 10.5985 20.2783 12.838L12.6984 20.2402C12.3105 20.619 11.6913 20.6196 11.3026 20.2416L3.7109 12.8593C1.97472 10.5976 2.10707 7.27931 4.09739 5.19843C6.08439 3.12102 9.21735 3.00963 11.3268 4.85039Z" fill="white" stroke="white" stroke-width="2"/>
</mask>
<g mask="url(#mask0_85_2201)">
</g>
</svg>
