<svg width="29" height="28" viewBox="0 0 29 28" fill="none" xmlns="http://www.w3.org/2000/svg">
<g opacity="0.5">
<circle cx="14.2265" cy="13.9106" r="13.9106" fill="url(#paint0_linear_104_18535)"/>
<path d="M18.804 8.34619H10.3452C9.39023 8.34619 8.6626 9.07382 8.6626 10.0288V18.4876C8.6626 19.4426 9.39023 20.1702 10.3452 20.1702H18.804C19.759 20.1702 20.4866 19.4426 20.4866 18.4876V10.0288C20.4866 9.07382 19.759 8.34619 18.804 8.34619ZM14.5746 17.8054C16.5301 17.8054 18.1218 16.2592 18.1218 14.3946C18.1218 14.0763 18.0763 13.7125 17.9854 13.4396H18.9859V18.2602C18.9859 18.4876 18.804 18.7149 18.5311 18.7149H10.6181C10.3907 18.7149 10.1633 18.533 10.1633 18.2602V13.3941H11.2093C11.1184 13.7125 11.0729 14.0308 11.0729 14.3492C11.0274 16.2592 12.6191 17.8054 14.5746 17.8054ZM14.5746 16.4411C13.3013 16.4411 12.3008 15.4406 12.3008 14.2127C12.3008 12.9848 13.3013 11.9844 14.5746 11.9844C15.848 11.9844 16.8485 12.9848 16.8485 14.2127C16.8485 15.4861 15.848 16.4411 14.5746 16.4411ZM18.9404 11.5751C18.9404 11.8479 18.713 12.0753 18.4402 12.0753H17.1668C16.8939 12.0753 16.6666 11.8479 16.6666 11.5751V10.3472C16.6666 10.0743 16.8939 9.84693 17.1668 9.84693H18.4402C18.713 9.84693 18.9404 10.0743 18.9404 10.3472V11.5751Z" fill="white"/>
</g>
<defs>
<linearGradient id="paint0_linear_104_18535" x1="6.22793" y1="24.6913" x2="24.6595" y2="5.56425" gradientUnits="userSpaceOnUse">
<stop stop-color="#EEA054"/>
<stop offset="0.502762" stop-color="#D64763"/>
<stop offset="1" stop-color="#B62A99"/>
</linearGradient>
</defs>
</svg>
