<svg width="65" height="39" viewBox="0 0 65 39" fill="none" xmlns="http://www.w3.org/2000/svg">
<g opacity="0.5">
<path d="M65 19.5C65 30.2 56.3 39 45.5 39C34.8 39 26 30.2 26 19.5C26 8.8 34.7 0 45.4 0C56.3 0 65 8.8 65 19.5Z" fill="#F9B50B"/>
<path d="M38.9 19.6C38.9 18.2 38.7 16.8 38.5 15.5H26.5C26.6 14.8 26.8 14.2 27 13.4H37.7C37.5 12.7 37.2 12 36.9 11.3H27.8C28.1 10.6 28.5 10 28.9 9.2H35.8C35.4 8.5 34.9 7.8 34.3 7.1H30.5C31.1 6.4 31.7 5.8 32.5 5.1C29.1 1.9 24.5 0 19.4 0C8.8 0.3 0 8.8 0 19.5C0 30.2 8.7 39 19.5 39C24.6 39 29.1 37 32.6 33.9C33.3 33.3 33.9 32.6 34.6 31.8H30.6C30.1 31.2 29.6 30.5 29.2 29.8H36C36.4 29.2 36.8 28.5 37.1 27.7H28C27.7 27.1 27.4 26.4 27.2 25.6H37.9C38.5 23.8 38.9 21.8 38.9 19.6Z" fill="#C8191C"/>
<path d="M26.3999 24.4999L26.6999 22.6999C26.5999 22.6999 26.3999 22.7999 26.1999 22.7999C25.4999 22.7999 25.3999 22.3999 25.4999 22.1999L26.0999 18.5999H27.1999L27.4999 16.5999H26.4999L26.6999 15.3999H24.5999C24.5999 15.3999 23.3999 22.1999 23.3999 22.9999C23.3999 24.1999 24.0999 24.7999 25.0999 24.7999C25.6999 24.7999 26.1999 24.5999 26.3999 24.4999Z" fill="white"/>
<path d="M27.1001 21.2001C27.1001 24.1001 29.1001 24.8001 30.7001 24.8001C32.2001 24.8001 32.9001 24.5001 32.9001 24.5001L33.3001 22.5001C33.3001 22.5001 32.2001 23.0001 31.1001 23.0001C28.8001 23.0001 29.2001 21.3001 29.2001 21.3001H33.4001C33.4001 21.3001 33.7001 20.0001 33.7001 19.4001C33.7001 18.1001 33.0001 16.4001 30.7001 16.4001C28.7001 16.3001 27.1001 18.6001 27.1001 21.2001ZM30.7001 18.2001C31.8001 18.2001 31.6001 19.5001 31.6001 19.6001H29.3001C29.4001 19.5001 29.6001 18.2001 30.7001 18.2001Z" fill="white"/>
<path d="M43.8001 24.4999L44.2001 22.1999C44.2001 22.1999 43.2001 22.6999 42.4001 22.6999C41.0001 22.6999 40.3001 21.5999 40.3001 20.2999C40.3001 17.7999 41.5001 16.4999 43.0001 16.4999C44.0001 16.4999 44.9001 17.0999 44.9001 17.0999L45.2001 14.8999C45.2001 14.8999 44.0001 14.3999 42.8001 14.3999C40.4001 14.3999 38.1001 16.4999 38.1001 20.3999C38.1001 22.9999 39.3001 24.6999 41.8001 24.6999C42.7001 24.7999 43.8001 24.4999 43.8001 24.4999Z" fill="white"/>
<path d="M15.1002 16.3C13.7002 16.3 12.6002 16.7001 12.6002 16.7001L12.3002 18.5C12.3002 18.5 13.2002 18.1 14.6002 18.1C15.3002 18.1 15.9002 18.2 15.9002 18.8C15.9002 19.2 15.8002 19.3 15.8002 19.3H14.9002C13.1002 19.3 11.2002 20 11.2002 22.4C11.2002 24.3 12.4002 24.7001 13.2002 24.7001C14.6002 24.7001 15.3002 23.8 15.4002 23.8L15.3002 24.6H17.0002L17.8002 18.9C17.8002 16.4 15.8002 16.3 15.1002 16.3ZM15.5002 20.9C15.5002 21.2 15.3002 22.9 14.1002 22.9C13.5002 22.9 13.3002 22.4001 13.3002 22.1C13.3002 21.6 13.6002 20.9 15.2002 20.9C15.4002 20.9 15.5002 20.9 15.5002 20.9Z" fill="white"/>
<path d="M19.7998 24.7C20.2998 24.7 22.8998 24.8 22.8998 22C22.8998 19.4 20.3998 19.9 20.3998 18.9C20.3998 18.4 20.7998 18.2 21.4998 18.2C21.7998 18.2 22.8998 18.2999 22.8998 18.2999L23.1998 16.4C23.1998 16.4 22.4998 16.2 21.1998 16.2C19.6998 16.2 18.0998 16.8 18.0998 18.9C18.0998 21.3 20.6998 21.1 20.6998 22C20.6998 22.6 19.9998 22.7 19.4998 22.7C18.5998 22.7 17.5998 22.4 17.5998 22.4L17.2998 24.2999C17.4998 24.4999 18.0998 24.7 19.7998 24.7Z" fill="white"/>
<path d="M61.0001 14.7L60.6001 17.5C60.6001 17.5 59.8001 16.5 58.6001 16.5C56.7001 16.5 55.1001 18.8 55.1001 21.5C55.1001 23.2 55.9001 24.9 57.7001 24.9C58.9001 24.9 59.7001 24.1 59.7001 24.1L59.6001 24.8H61.7001L63.2001 14.9L61.0001 14.7ZM60.0001 20.1C60.0001 21.2 59.5001 22.7 58.3001 22.7C57.6001 22.7 57.2001 22.1 57.2001 21C57.2001 19.3 57.9001 18.3 58.9001 18.3C59.6001 18.4 60.0001 18.9 60.0001 20.1Z" fill="white"/>
<path d="M3.7998 24.6L4.9998 17.2L5.1998 24.6H6.5998L9.2998 17.2L8.1998 24.6H10.3998L12.0998 14.7H8.6998L6.5998 20.8L6.4998 14.7H3.4998L1.7998 24.6H3.7998Z" fill="white"/>
<path d="M35.8 24.6C36.4 21.2 36.5 18.4 38 18.9C38.2 17.6 38.5 17 38.7 16.5H38.3C37.4 16.5 36.6 17.7 36.6 17.7L36.8 16.6H34.8L33.5 24.6H35.8Z" fill="white"/>
<path d="M48.6002 16.3C47.2002 16.3 46.1002 16.7001 46.1002 16.7001L45.8002 18.5C45.8002 18.5 46.7002 18.1 48.1002 18.1C48.8002 18.1 49.4002 18.2 49.4002 18.8C49.4002 19.2 49.3002 19.3 49.3002 19.3H48.4002C46.6002 19.3 44.7002 20 44.7002 22.4C44.7002 24.3 45.9002 24.7001 46.7002 24.7001C48.1002 24.7001 48.8002 23.8 48.9002 23.8L48.8002 24.6H50.7002L51.5002 18.9C51.5002 16.4 49.3002 16.3 48.6002 16.3ZM49.1002 20.9C49.1002 21.2 48.9002 22.9 47.7002 22.9C47.1002 22.9 46.9002 22.4001 46.9002 22.1C46.9002 21.6 47.2002 20.9 48.8002 20.9C49.0002 20.9 49.0002 20.9 49.1002 20.9Z" fill="white"/>
<path d="M53.0998 24.6C53.6998 21.2 53.7998 18.4 55.2998 18.9C55.4998 17.6 55.7998 17 55.9998 16.5H55.5998C54.6998 16.5 53.8998 17.7 53.8998 17.7L54.0998 16.6H52.0998L50.7998 24.6H53.0998Z" fill="white"/>
</g>
</svg>
