<svg width="54" height="16" viewBox="0 0 54 16" fill="none" xmlns="http://www.w3.org/2000/svg">
<g opacity="0.5">
<path d="M48.0002 0H37.7002C38.3002 3.4 41.6002 6.60001 45.2002 6.60001H53.4002C53.5002 6.30001 53.5002 5.8 53.5002 5.5C53.5002 2.5 51.0002 0 48.0002 0Z" fill="url(#paint0_linear_104_1878)"/>
<path d="M38.6001 7.19995V15.4999H43.6001V11.0999H48.0001C50.4001 11.0999 52.5001 9.39995 53.2001 7.19995H38.6001Z" fill="#4FAD50"/>
<path d="M21 0V15.4H25.4C25.4 15.4 26.5 15.4 27.1 14.3C30.1 8.4 31 6.60001 31 6.60001H31.6V15.4H36.6V0H32.2C32.2 0 31.1 0.100006 30.5 1.10001C28 6.20001 26.6 8.8 26.6 8.8H26V0H21Z" fill="#4FAD50"/>
<path d="M0 15.5001V0.100098H5C5 0.100098 6.40001 0.100095 7.20001 2.30009C9.20001 8.10009 9.40002 8.9001 9.40002 8.9001C9.40002 8.9001 9.80001 7.50009 11.6 2.30009C12.4 0.100095 13.8 0.100098 13.8 0.100098H18.8V15.5001H13.8V7.2001H13.2L10.4 15.5001H8.20001L5.40002 7.2001H4.80002V15.5001H0Z" fill="#4FAD50"/>
</g>
<defs>
<linearGradient id="paint0_linear_104_1878" x1="37.6824" y1="3.3473" x2="53.4648" y2="3.3473" gradientUnits="userSpaceOnUse">
<stop stop-color="#27B1E6"/>
<stop offset="1" stop-color="#148ACA"/>
</linearGradient>
</defs>
</svg>
