<svg width="29" height="28" viewBox="0 0 29 28" fill="none" xmlns="http://www.w3.org/2000/svg">
<g opacity="0.5">
<circle cx="14.7739" cy="13.9106" r="13.9106" fill="#F79A38"/>
<path d="M19.1125 15.8531C19.4774 15.4881 19.5296 14.9668 19.2167 14.4454C18.956 14.0283 18.4868 13.8197 17.9654 13.924C17.7569 13.9761 17.5483 14.0804 17.3398 14.2368C15.7235 15.3317 13.5337 15.2796 11.9175 14.1847C11.8132 14.1326 11.7089 14.0804 11.6046 14.0283C11.0311 13.7676 10.4576 13.8719 10.1448 14.3933C9.77982 14.9146 9.83195 15.4881 10.3012 15.9574C10.4055 16.0617 10.5097 16.1138 10.5619 16.2181L10.614 16.2702C11.3439 16.8437 12.2303 17.2087 13.3773 17.3651L12.6995 18.0429C12.126 18.6164 11.5004 19.2421 10.9268 19.8156C10.7704 19.972 10.5619 20.2327 10.5619 20.5976C10.5619 21.0669 10.8226 21.5361 11.2918 21.7447C11.4482 21.8489 11.6046 21.8489 11.761 21.8489C12.0217 21.8489 12.3346 21.7447 12.5431 21.484C13.3252 20.7019 13.9508 20.0763 14.5765 19.4506C14.6286 19.3985 14.6286 19.3985 14.6286 19.3985C14.6286 19.3985 14.6808 19.3985 14.6808 19.4506C15.0979 19.9198 15.5671 20.3369 15.9842 20.8062C16.1928 21.0147 16.4013 21.2233 16.6099 21.4318C16.8705 21.6925 17.0791 21.7968 17.3919 21.7968C17.8612 21.8489 18.3825 21.5361 18.5911 21.0669C18.7996 20.6498 18.6954 20.1284 18.3304 19.8156C17.809 19.2942 17.2876 18.7207 16.7141 18.1993L15.8278 17.313C16.297 17.2608 16.8184 17.1565 17.2876 16.948C18.0697 16.6873 18.6432 16.3223 19.1125 15.8531Z" fill="white"/>
<path d="M14.6286 14.3932C16.8705 14.3932 18.6954 12.6206 18.6954 10.3786C18.6954 9.28375 18.2783 8.241 17.4962 7.45893C16.7141 6.67687 15.7235 6.25977 14.6808 6.25977C12.4388 6.25977 10.6662 8.08458 10.614 10.2744C10.614 11.3693 11.0311 12.3599 11.8132 13.1419C12.5431 13.9761 13.5337 14.3932 14.6286 14.3932ZM13.4816 9.17948C13.7944 8.86665 14.2115 8.71023 14.6286 8.71023C15.5671 8.71023 16.2449 9.44017 16.2449 10.3265C16.2449 11.265 15.515 11.9428 14.6286 11.9428C13.6901 11.9428 13.0124 11.2128 13.0124 10.3265C13.0124 9.9094 13.1688 9.4923 13.4816 9.17948Z" fill="white"/>
<path d="M19.1125 15.8531C19.4774 15.4881 19.5296 14.9668 19.2167 14.4454C18.956 14.0283 18.4868 13.8197 17.9654 13.924C17.7569 13.9761 17.5483 14.0804 17.3398 14.2368C15.7235 15.3317 13.5337 15.2796 11.9175 14.1847C11.8132 14.1326 11.7089 14.0804 11.6046 14.0283C11.0311 13.7676 10.4576 13.8719 10.1448 14.3933C9.77982 14.9146 9.83195 15.4881 10.3012 15.9574C10.4055 16.0617 10.5097 16.1138 10.5619 16.2181L10.614 16.2702C11.3439 16.8437 12.2303 17.2087 13.3773 17.3651L12.6995 18.0429C12.126 18.6164 11.5004 19.2421 10.9268 19.8156C10.7704 19.972 10.5619 20.2327 10.5619 20.5976C10.5619 21.0669 10.8226 21.5361 11.2918 21.7447C11.4482 21.8489 11.6046 21.8489 11.761 21.8489C12.0217 21.8489 12.3346 21.7447 12.5431 21.484C13.3252 20.7019 13.9508 20.0763 14.5765 19.4506C14.6286 19.3985 14.6286 19.3985 14.6286 19.3985C14.6286 19.3985 14.6808 19.3985 14.6808 19.4506C15.0979 19.9198 15.5671 20.3369 15.9842 20.8062C16.1928 21.0147 16.4013 21.2233 16.6099 21.4318C16.8705 21.6925 17.0791 21.7968 17.3919 21.7968C17.8612 21.8489 18.3825 21.5361 18.5911 21.0669C18.7996 20.6498 18.6954 20.1284 18.3304 19.8156C17.809 19.2942 17.2876 18.7207 16.7141 18.1993L15.8278 17.313C16.297 17.2608 16.8184 17.1565 17.2876 16.948C18.0697 16.6873 18.6432 16.3223 19.1125 15.8531Z" fill="white"/>
</g>
</svg>
