<svg width="28" height="28" viewBox="0 0 28 28" fill="none" xmlns="http://www.w3.org/2000/svg">
<g opacity="0.5">
<circle cx="13.9106" cy="13.9106" r="13.9106" fill="#2F89CE"/>
<path d="M6.50369 14.1706L9.70181 15.3631L10.9485 19.3743C11.0027 19.6453 11.328 19.6996 11.5448 19.5369L13.3335 18.0734C13.4962 17.9108 13.7672 17.9108 13.984 18.0734L17.1821 20.4042C17.3989 20.5668 17.7242 20.4584 17.7784 20.1874L20.1634 8.80431C20.2176 8.53328 19.9466 8.26226 19.6756 8.37067L6.50369 13.466C6.17846 13.5744 6.17846 14.0622 6.50369 14.1706ZM10.7859 14.7669L17.0737 10.9183C17.1821 10.8641 17.2905 11.0267 17.1821 11.0809L12.0326 15.9052C11.87 16.0678 11.7074 16.2846 11.7074 16.5556L11.5448 17.8566C11.5448 18.0192 11.2738 18.0734 11.2195 17.8566L10.5691 15.4715C10.4065 15.2005 10.5149 14.8753 10.7859 14.7669Z" fill="white"/>
</g>
</svg>
