<svg width="29" height="28" viewBox="0 0 29 28" fill="none" xmlns="http://www.w3.org/2000/svg">
<g opacity="0.5">
<circle cx="14.3628" cy="13.9106" r="13.9106" fill="#7C509A"/>
<path d="M18.7123 7.33502C16.0613 6.82876 13.3083 6.82876 10.6573 7.33502C9.48471 7.58816 8.00626 9.0057 7.75135 10.1195C7.29252 12.2964 7.29252 14.524 7.75135 16.7009C8.05724 17.8147 9.5357 19.2323 10.6573 19.4854C10.7083 19.4854 10.7592 19.536 10.7592 19.5867V22.7761C10.7592 22.928 10.9632 23.0293 11.0651 22.8774L12.5946 21.308C12.5946 21.308 13.8181 20.0423 14.0221 19.8398C14.0221 19.8398 14.073 19.7892 14.124 19.7892C15.6535 19.8398 17.2339 19.6879 18.7633 19.4348C19.9359 19.1817 21.4143 17.7641 21.6692 16.6503C22.1281 14.4734 22.1281 12.2458 21.6692 10.0689C21.3634 9.0057 19.8849 7.58816 18.7123 7.33502ZM18.7633 16.8528C18.5084 17.3591 18.2025 17.7641 17.6927 18.0172C17.5398 18.0679 17.3868 18.1185 17.2339 18.1691C17.0299 18.1185 16.877 18.0679 16.7241 18.0172C15.0927 17.3591 13.5632 16.4478 12.3397 15.1315C11.6769 14.3721 11.1161 13.5115 10.6573 12.6002C10.4534 12.1446 10.2494 11.7395 10.0965 11.2839C9.94355 10.8789 10.1985 10.4739 10.4534 10.1701C10.7083 9.86635 11.0142 9.66385 11.371 9.51197C11.6259 9.36009 11.8808 9.46134 12.0848 9.66385C12.4926 10.1701 12.9005 10.6764 13.2064 11.2333C13.4103 11.5877 13.3593 11.9927 13.0024 12.2458C12.9005 12.2964 12.8495 12.3471 12.7475 12.4483C12.6965 12.4989 12.5946 12.5496 12.5436 12.6508C12.4416 12.8027 12.4416 12.9546 12.4926 13.1065C12.9005 14.2709 13.6652 15.1821 14.8378 15.6884C15.0417 15.7897 15.1946 15.8403 15.4495 15.8403C15.8064 15.7897 15.9593 15.3847 16.2142 15.1821C16.4692 14.9796 16.775 14.9796 17.0809 15.1315C17.3358 15.2834 17.5907 15.4859 17.8966 15.6884C18.1515 15.8909 18.4064 16.0428 18.6613 16.2453C18.8143 16.3466 18.8653 16.5997 18.7633 16.8528ZM16.6221 13.0558C16.5201 13.0558 16.5711 13.0558 16.6221 13.0558C16.4182 13.0558 16.3672 12.9546 16.3162 12.8027C16.3162 12.7014 16.3162 12.5496 16.2652 12.4483C16.2142 12.2458 16.1123 12.0433 15.9084 11.8914C15.8064 11.8408 15.7044 11.7902 15.6025 11.7395C15.4495 11.6889 15.3476 11.6889 15.1946 11.6889C15.0417 11.6383 14.9907 11.537 14.9907 11.3852C14.9907 11.2839 15.1436 11.1826 15.2456 11.1826C16.0613 11.2333 16.6731 11.6889 16.775 12.6508C16.775 12.7014 16.775 12.8027 16.775 12.8533C16.775 12.9546 16.7241 13.0558 16.6221 13.0558ZM16.1123 10.8283C15.8574 10.727 15.6025 10.6258 15.2966 10.5751C15.1946 10.5751 15.0417 10.5245 14.9397 10.5245C14.7868 10.5245 14.6848 10.4232 14.7358 10.2714C14.7358 10.1195 14.8378 10.0182 14.9907 10.0689C15.5005 10.1195 15.9593 10.2207 16.4182 10.4232C17.3358 10.8789 17.8457 11.6383 17.9986 12.6508C17.9986 12.7014 17.9986 12.7521 17.9986 12.8027C17.9986 12.904 17.9986 13.0052 17.9986 13.1571C17.9986 13.2077 17.9986 13.2583 17.9986 13.309C17.9476 13.5115 17.5907 13.5621 17.5398 13.309C17.5398 13.2583 17.4888 13.1571 17.4888 13.1065C17.4888 12.6508 17.3868 12.1952 17.1829 11.7902C16.877 11.3345 16.5201 11.0308 16.1123 10.8283ZM18.8653 13.8659C18.7123 13.8659 18.6104 13.714 18.6104 13.5621C18.6104 13.2583 18.5594 12.9546 18.5084 12.6508C18.3045 11.0308 16.979 9.71447 15.3985 9.46134C15.1436 9.41071 14.8887 9.41071 14.6848 9.36009C14.5319 9.36009 14.3279 9.36009 14.277 9.15758C14.226 9.0057 14.3789 8.85382 14.5319 8.85382C14.5828 8.85382 14.6338 8.85382 14.6338 8.85382C14.7358 8.85382 16.7241 8.90445 14.6338 8.85382C16.775 8.90445 18.5594 10.322 18.9163 12.4483C18.9672 12.8027 19.0182 13.1571 19.0182 13.5621C19.1202 13.714 19.0182 13.8659 18.8653 13.8659Z" fill="white"/>
</g>
</svg>
