<svg width="69" height="21" viewBox="0 0 69 21" fill="none" xmlns="http://www.w3.org/2000/svg">
<g opacity="0.5">
<path d="M63.7999 0.300049H59.4999C58.1999 0.300049 57.1999 0.700049 56.5999 2.00005L48.3999 20.7H54.1999C54.1999 20.7 55.1999 18.2001 55.3999 17.6C55.9999 17.6 61.6999 17.6 62.4999 17.6C62.6999 18.3001 63.1999 20.6 63.1999 20.6H68.3999L63.7999 0.300049ZM56.9999 13.4C57.4999 12.2 59.1999 7.70005 59.1999 7.70005C59.1999 7.80005 59.6999 6.50005 59.8999 5.80005L60.2999 7.60005C60.2999 7.60005 61.3999 12.5 61.5999 13.5H56.9999V13.4Z" fill="#3362AB"/>
<path d="M48.7999 14C48.7999 18.2 44.9999 21 39.0999 21C36.5999 21 34.1999 20.5 32.8999 19.9L33.6999 15.3L34.3999 15.6C36.1999 16.4 37.3999 16.7 39.5999 16.7C41.1999 16.7 42.8999 16.1 42.8999 14.7C42.8999 13.8 42.1999 13.2 39.9999 12.2C37.8999 11.2 35.0999 9.6 35.0999 6.7C35.0999 2.7 38.9999 0 44.4999 0C46.5999 0 48.3999 0.4 49.4999 0.9L48.6999 5.3L48.2999 4.9C47.2999 4.5 45.9999 4.1 44.0999 4.1C41.9999 4.2 40.9999 5.1 40.9999 5.9C40.9999 6.8 42.1999 7.5 44.0999 8.4C47.2999 9.9 48.7999 11.6 48.7999 14Z" fill="#3362AB"/>
<path d="M0 0.500098L0.1 0.100098H8.7C9.9 0.100098 10.8 0.500098 11.1 1.8001L13 10.8001C11.1 6.0001 6.7 2.1001 0 0.500098Z" fill="#F9B50B"/>
<path d="M25.1 0.299951L16.4 20.6H10.5L5.5 3.59995C9.1 5.89995 12.1 9.49995 13.2 12L13.8 14.1L19.2 0.199951H25.1V0.299951Z" fill="#3362AB"/>
<path d="M27.3999 0.199951H32.8999L29.3999 20.6H23.8999L27.3999 0.199951Z" fill="#3362AB"/>
</g>
</svg>
