<svg width="28" height="28" viewBox="0 0 28 28" fill="none" xmlns="http://www.w3.org/2000/svg">
<circle cx="14.0893" cy="13.9106" r="13.9106" fill="#7294C7"/>
<path d="M20.9098 17.4684C20.9098 17.4107 20.852 17.4107 20.852 17.3529C20.621 16.891 20.1013 16.3135 19.4084 15.6783C19.0619 15.3896 18.8887 15.1586 18.7732 15.0431C18.6 14.8121 18.6 14.6389 18.6577 14.4079C18.7155 14.2347 18.9464 13.946 19.3506 13.4262C19.5816 13.1375 19.6971 12.9643 19.8703 12.7911C20.7365 11.6362 21.1407 10.8855 21.0252 10.539L20.9675 10.4813C20.9098 10.4235 20.852 10.3658 20.7365 10.3658C20.621 10.308 20.4478 10.308 20.2746 10.3658H18.0803C18.0225 10.3658 18.0225 10.3658 17.907 10.3658C17.8493 10.3658 17.7915 10.3658 17.7915 10.3658H17.7338H17.676L17.6183 10.4235C17.5605 10.4813 17.5605 10.4813 17.5605 10.539C17.3296 11.1742 17.0408 11.6939 16.7521 12.2713C16.5789 12.5601 16.4056 12.8488 16.2324 13.0798C16.0592 13.3108 15.9437 13.484 15.8282 13.5995C15.7127 13.715 15.5972 13.7727 15.5395 13.8882C15.4817 13.946 15.3662 14.0037 15.3662 13.946C15.3085 13.946 15.2507 13.946 15.2507 13.8882C15.193 13.8305 15.1353 13.7727 15.0775 13.715C15.0198 13.6572 15.0198 13.5417 14.962 13.4262C14.962 13.3108 14.962 13.1953 14.962 13.1375C14.962 13.0798 14.962 12.9065 14.962 12.7911C14.962 12.6178 14.962 12.5023 14.962 12.4446C14.962 12.2714 14.962 12.0404 14.962 11.8094C14.962 11.5784 14.962 11.4052 14.962 11.2897C14.962 11.1742 14.962 11.001 14.962 10.8855C14.962 10.7122 14.962 10.5967 14.962 10.539C14.962 10.4813 14.9043 10.3658 14.9043 10.308C14.8465 10.2503 14.7888 10.1925 14.731 10.1348C14.6733 10.077 14.5578 10.077 14.5001 10.0193C14.2113 9.96155 13.8649 9.90381 13.4607 9.90381C12.5367 9.90381 11.9015 9.96156 11.6706 10.077C11.5551 10.1348 11.4396 10.1925 11.3818 10.308C11.2663 10.4235 11.2663 10.4813 11.3241 10.4813C11.6128 10.539 11.8438 10.6545 11.9593 10.8277L12.017 10.9432C12.0748 11.001 12.0748 11.1165 12.1325 11.2897C12.1903 11.4629 12.1903 11.6362 12.1903 11.8671C12.1903 12.2136 12.1903 12.5601 12.1903 12.7911C12.1903 13.0798 12.1325 13.253 12.1325 13.4262C12.1325 13.5995 12.0748 13.715 12.017 13.7727C11.9593 13.8882 11.9593 13.946 11.9015 13.946C11.9015 13.946 11.9015 14.0037 11.8438 14.0037C11.786 14.0037 11.7283 14.0614 11.6128 14.0614C11.5551 14.0614 11.4396 14.0037 11.3818 13.946C11.2663 13.8882 11.1509 13.7727 11.0931 13.6572C10.9776 13.5417 10.8621 13.3685 10.7466 13.1375C10.6311 12.9065 10.4579 12.6756 10.3424 12.3291L10.2269 12.0981C10.1692 11.9826 10.0537 11.7516 9.93821 11.4629C9.82272 11.1742 9.70723 10.9432 9.59174 10.6545C9.53399 10.539 9.47625 10.4813 9.41851 10.4235H9.36076C9.36076 10.4235 9.30301 10.3658 9.24526 10.3658C9.18752 10.3658 9.12978 10.308 9.07204 10.308H6.99321C6.76223 10.308 6.64674 10.3658 6.589 10.4235L6.53125 10.4813C6.53125 10.4813 6.53125 10.539 6.53125 10.5967C6.53125 10.6545 6.53125 10.7122 6.589 10.8277C6.87772 11.5207 7.22419 12.2136 7.57066 12.9065C7.91713 13.5417 8.26361 14.1192 8.49459 14.5234C8.78331 14.9276 9.01429 15.3318 9.30301 15.6783C9.59174 16.0248 9.76497 16.2558 9.82271 16.3712C9.9382 16.4867 9.99594 16.5445 10.0537 16.6022L10.2269 16.7755C10.3424 16.891 10.5157 17.0642 10.7466 17.2374C10.9776 17.4107 11.2663 17.5839 11.5551 17.7571C11.8438 17.9304 12.1903 18.0459 12.5367 18.1613C12.9409 18.2768 13.2874 18.3346 13.6339 18.2768H14.5001C14.6733 18.2768 14.7888 18.2191 14.9043 18.1036L14.962 18.0458C14.962 17.9881 15.0198 17.9881 15.0198 17.9304C15.0198 17.8726 15.0198 17.8149 15.0198 17.6994C15.0198 17.4684 15.0198 17.2952 15.0775 17.1219C15.1353 16.9487 15.1353 16.8332 15.193 16.7177C15.2508 16.6022 15.3085 16.5445 15.3662 16.4867C15.424 16.429 15.4817 16.3712 15.4817 16.3712H15.5395C15.655 16.3135 15.8282 16.3712 15.9437 16.4867C16.1169 16.6022 16.2901 16.7755 16.4056 16.9487C16.5211 17.1219 16.6944 17.2952 16.9254 17.5261C17.1563 17.7571 17.3296 17.9304 17.4451 17.9881L17.6183 18.1036C17.7338 18.1613 17.8493 18.2191 18.0225 18.2768C18.1957 18.3346 18.3112 18.3346 18.4267 18.3346L20.3901 18.2768C20.5633 18.2768 20.7365 18.2191 20.852 18.1613C20.9675 18.1036 21.0252 18.0459 21.0252 17.9304C21.0252 17.8726 21.0252 17.7571 21.0252 17.6994C20.9097 17.5839 20.9098 17.5261 20.9098 17.4684Z" fill="white"/>
</svg>
